<?xml version="1.0" encoding="UTF-8" standalone="no"?>
<!DOCTYPE svg PUBLIC "-//W3C//DTD SVG 1.1//EN" "http://www.w3.org/Graphics/SVG/1.1/DTD/svg11.dtd">
<svg width="100%" height="100%" viewBox="0 0 1080 248" version="1.1" xmlns="http://www.w3.org/2000/svg" xmlns:xlink="http://www.w3.org/1999/xlink" xml:space="preserve" xmlns:serif="http://www.serif.com/" style="fill-rule:evenodd;clip-rule:evenodd;stroke-linejoin:round;stroke-miterlimit:2;">
    <g id="Artboard1" transform="matrix(1,0,0,0.22963,0,0)">
        <rect x="0" y="0" width="1080" height="1080" style="fill:none;"/>
        <g transform="matrix(1,0,0,4.35484,0,-1802.9)">
            <g transform="matrix(3.88269,0,0,3.88269,-871.009,-1183.65)">
                <g transform="matrix(50,0,0,50,230,458.75)">
                    <path d="M0.366,0.018C0.544,0.018 0.671,-0.099 0.671,-0.271L0.671,-0.54L0.474,-0.54L0.474,-0.274C0.474,-0.206 0.43,-0.162 0.366,-0.162C0.301,-0.162 0.257,-0.206 0.257,-0.274L0.257,-0.54L0.06,-0.54L0.06,-0.271C0.06,-0.099 0.187,0.018 0.366,0.018Z" style="fill:url(#_Linear1);fill-rule:nonzero;"/>
                </g>
                <g transform="matrix(50,0,0,50,262.941,458.75)">
                    <path d="M0.374,-0.558C0.31,-0.558 0.253,-0.536 0.208,-0.497L0.185,-0.54L0.059,-0.54L0.059,0.195L0.242,0.195L0.242,-0.018C0.281,0.005 0.325,0.018 0.374,0.018C0.539,0.018 0.657,-0.102 0.657,-0.27C0.657,-0.438 0.539,-0.558 0.374,-0.558ZM0.349,-0.146C0.279,-0.146 0.228,-0.199 0.228,-0.27C0.228,-0.341 0.279,-0.394 0.349,-0.394C0.419,-0.394 0.47,-0.341 0.47,-0.27C0.47,-0.199 0.418,-0.146 0.349,-0.146Z" style="fill:url(#_Linear2);fill-rule:nonzero;"/>
                </g>
                <g transform="matrix(0.287368,0,0,0.287368,174.197,289.459)">
                    <circle cx="487.689" cy="471.863" r="15.933" style="fill:url(#_Linear3);"/>
                </g>
                <g transform="matrix(0.287368,0,0,0.287368,231.169,289.459)">
                    <circle cx="487.689" cy="471.863" r="15.933" style="fill:url(#_Linear4);"/>
                </g>
                <g transform="matrix(50,0,0,50,295.171,458.75)">
                    <rect x="0.059" y="-0.735" width="0.186" height="0.735" style="fill:url(#_Linear5);fill-rule:nonzero;"/>
                </g>
                <g transform="matrix(50,0,0,50,306.768,458.75)">
                    <rect x="0.059" y="-0.54" width="0.186" height="0.54" style="fill:url(#_Linear6);fill-rule:nonzero;"/>
                </g>
                <g transform="matrix(50,0,0,50,320.152,458.75)">
                    <path d="M0.42,-0.531L0.292,-0.531L0.292,-0.568C0.292,-0.595 0.309,-0.612 0.336,-0.612L0.419,-0.612L0.419,-0.754L0.289,-0.754C0.174,-0.754 0.115,-0.691 0.115,-0.583L0.115,-0.531L0.023,-0.531L0.023,-0.385L0.112,-0.385L0.112,-0L0.298,-0L0.298,-0.385L0.42,-0.385L0.42,-0.531Z" style="fill:url(#_Linear7);fill-rule:nonzero;"/>
                </g>
                <g transform="matrix(50,0,0,50,343.305,458.75)">
                    <path d="M0.351,-0.163C0.312,-0.163 0.289,-0.186 0.289,-0.225L0.289,-0.397L0.42,-0.397L0.42,-0.54L0.284,-0.54L0.284,-0.698L0.246,-0.698L0.004,-0.44L0.004,-0.397L0.103,-0.397L0.103,-0.193C0.103,-0.073 0.175,-0 0.295,-0L0.423,-0L0.423,-0.163L0.351,-0.163Z" style="fill:url(#_Linear8);fill-rule:nonzero;"/>
                </g>
                <g transform="matrix(50,0,0,50,363.81,458.75)">
                    <rect x="0.059" y="-0.54" width="0.186" height="0.54" style="fill:url(#_Linear9);fill-rule:nonzero;"/>
                </g>
                <g transform="matrix(50,0,0,50,377.195,458.75)">
                    <path d="M0.42,-0.531L0.292,-0.531L0.292,-0.568C0.292,-0.595 0.309,-0.612 0.336,-0.612L0.419,-0.612L0.419,-0.754L0.289,-0.754C0.174,-0.754 0.115,-0.691 0.115,-0.583L0.115,-0.531L0.023,-0.531L0.023,-0.385L0.112,-0.385L0.112,-0L0.298,-0L0.298,-0.385L0.42,-0.385L0.42,-0.531Z" style="fill:url(#_Linear10);fill-rule:nonzero;"/>
                </g>
                <g transform="matrix(50,0,0,50,400.483,458.75)">
                    <path d="M0.423,-0.54L0.316,-0.243L0.202,-0.54L-0,-0.54L0.223,-0.045C0.198,0.023 0.176,0.041 0.105,0.041L0.054,0.041L0.054,0.201L0.118,0.201C0.257,0.201 0.324,0.141 0.397,-0.024L0.623,-0.54L0.423,-0.54Z" style="fill:url(#_Linear11);fill-rule:nonzero;"/>
                </g>
            </g>
            <g transform="matrix(1.23365,0,0,1.22147,505.553,-116.853)">
                <g transform="matrix(1,0,0,1.32979,-4,-1602.96)">
                    <path d="M326,1569.37C326,1558.68 314.574,1550 300.5,1550C286.426,1550 275,1558.68 275,1569.37L275,1653.63C275,1664.32 286.426,1673 300.5,1673C314.574,1673 326,1664.32 326,1653.63L326,1569.37Z" style="fill:url(#_Linear12);"/>
                </g>
                <g transform="matrix(1,0,0,1.03289,57,-1124.5)">
                    <path d="M326,1574.93C326,1561.17 314.574,1550 300.5,1550C286.426,1550 275,1561.17 275,1574.93L275,1648.07C275,1661.83 286.426,1673 300.5,1673C314.574,1673 326,1661.83 326,1648.07L326,1574.93Z" style="fill:url(#_Linear13);"/>
                </g>
                <g transform="matrix(1,0,0,0.522718,118,-302.359)">
                    <path d="M326,1599.27C326,1572.08 314.574,1550 300.5,1550C286.426,1550 275,1572.08 275,1599.27L275,1623.73C275,1650.92 286.426,1673 300.5,1673C314.574,1673 326,1650.92 326,1623.73L326,1599.27Z" style="fill:url(#_Linear14);"/>
                </g>
            </g>
        </g>
        <g transform="matrix(1,0,0,4.35484,0,-1802.9)">
            <g opacity="0.7">
                <g transform="matrix(3.88269,0,0,3.88269,-871.009,-1183.65)">
                    <g transform="matrix(50,0,0,50,230,458.75)">
                        <path d="M0.366,0.018C0.544,0.018 0.671,-0.099 0.671,-0.271L0.671,-0.54L0.474,-0.54L0.474,-0.274C0.474,-0.206 0.43,-0.162 0.366,-0.162C0.301,-0.162 0.257,-0.206 0.257,-0.274L0.257,-0.54L0.06,-0.54L0.06,-0.271C0.06,-0.099 0.187,0.018 0.366,0.018Z" style="fill:url(#_Linear15);fill-rule:nonzero;"/>
                    </g>
                    <g transform="matrix(50,0,0,50,262.941,458.75)">
                        <path d="M0.374,-0.558C0.31,-0.558 0.253,-0.536 0.208,-0.497L0.185,-0.54L0.059,-0.54L0.059,0.195L0.242,0.195L0.242,-0.018C0.281,0.005 0.325,0.018 0.374,0.018C0.539,0.018 0.657,-0.102 0.657,-0.27C0.657,-0.438 0.539,-0.558 0.374,-0.558ZM0.349,-0.146C0.279,-0.146 0.228,-0.199 0.228,-0.27C0.228,-0.341 0.279,-0.394 0.349,-0.394C0.419,-0.394 0.47,-0.341 0.47,-0.27C0.47,-0.199 0.418,-0.146 0.349,-0.146Z" style="fill:url(#_Linear16);fill-rule:nonzero;"/>
                    </g>
                    <g transform="matrix(0.287368,0,0,0.287368,174.197,289.459)">
                        <circle cx="487.689" cy="471.863" r="15.933" style="fill:url(#_Linear17);"/>
                    </g>
                    <g transform="matrix(0.287368,0,0,0.287368,231.169,289.459)">
                        <circle cx="487.689" cy="471.863" r="15.933" style="fill:url(#_Linear18);"/>
                    </g>
                    <g transform="matrix(50,0,0,50,295.171,458.75)">
                        <rect x="0.059" y="-0.735" width="0.186" height="0.735" style="fill:url(#_Linear19);fill-rule:nonzero;"/>
                    </g>
                    <g transform="matrix(50,0,0,50,306.768,458.75)">
                        <rect x="0.059" y="-0.54" width="0.186" height="0.54" style="fill:url(#_Linear20);fill-rule:nonzero;"/>
                    </g>
                    <g transform="matrix(50,0,0,50,320.152,458.75)">
                        <path d="M0.42,-0.531L0.292,-0.531L0.292,-0.568C0.292,-0.595 0.309,-0.612 0.336,-0.612L0.419,-0.612L0.419,-0.754L0.289,-0.754C0.174,-0.754 0.115,-0.691 0.115,-0.583L0.115,-0.531L0.023,-0.531L0.023,-0.385L0.112,-0.385L0.112,-0L0.298,-0L0.298,-0.385L0.42,-0.385L0.42,-0.531Z" style="fill:url(#_Linear21);fill-rule:nonzero;"/>
                    </g>
                    <g transform="matrix(50,0,0,50,343.305,458.75)">
                        <path d="M0.351,-0.163C0.312,-0.163 0.289,-0.186 0.289,-0.225L0.289,-0.397L0.42,-0.397L0.42,-0.54L0.284,-0.54L0.284,-0.698L0.246,-0.698L0.004,-0.44L0.004,-0.397L0.103,-0.397L0.103,-0.193C0.103,-0.073 0.175,-0 0.295,-0L0.423,-0L0.423,-0.163L0.351,-0.163Z" style="fill:url(#_Linear22);fill-rule:nonzero;"/>
                    </g>
                    <g transform="matrix(50,0,0,50,363.81,458.75)">
                        <rect x="0.059" y="-0.54" width="0.186" height="0.54" style="fill:url(#_Linear23);fill-rule:nonzero;"/>
                    </g>
                    <g transform="matrix(50,0,0,50,377.195,458.75)">
                        <path d="M0.42,-0.531L0.292,-0.531L0.292,-0.568C0.292,-0.595 0.309,-0.612 0.336,-0.612L0.419,-0.612L0.419,-0.754L0.289,-0.754C0.174,-0.754 0.115,-0.691 0.115,-0.583L0.115,-0.531L0.023,-0.531L0.023,-0.385L0.112,-0.385L0.112,-0L0.298,-0L0.298,-0.385L0.42,-0.385L0.42,-0.531Z" style="fill:url(#_Linear24);fill-rule:nonzero;"/>
                    </g>
                    <g transform="matrix(50,0,0,50,400.483,458.75)">
                        <path d="M0.423,-0.54L0.316,-0.243L0.202,-0.54L-0,-0.54L0.223,-0.045C0.198,0.023 0.176,0.041 0.105,0.041L0.054,0.041L0.054,0.201L0.118,0.201C0.257,0.201 0.324,0.141 0.397,-0.024L0.623,-0.54L0.423,-0.54Z" style="fill:url(#_Linear25);fill-rule:nonzero;"/>
                    </g>
                </g>
                <g transform="matrix(1.23365,0,0,1.22147,505.553,-116.853)">
                    <g transform="matrix(1,0,0,1.32979,-4,-1602.96)">
                        <path d="M326,1569.37C326,1558.68 314.574,1550 300.5,1550C286.426,1550 275,1558.68 275,1569.37L275,1653.63C275,1664.32 286.426,1673 300.5,1673C314.574,1673 326,1664.32 326,1653.63L326,1569.37Z" style="fill:url(#_Linear26);"/>
                    </g>
                    <g transform="matrix(1,0,0,1.03289,57,-1124.5)">
                        <path d="M326,1574.93C326,1561.17 314.574,1550 300.5,1550C286.426,1550 275,1561.17 275,1574.93L275,1648.07C275,1661.83 286.426,1673 300.5,1673C314.574,1673 326,1661.83 326,1648.07L326,1574.93Z" style="fill:url(#_Linear27);"/>
                    </g>
                    <g transform="matrix(1,0,0,0.522718,118,-302.359)">
                        <path d="M326,1599.27C326,1572.08 314.574,1550 300.5,1550C286.426,1550 275,1572.08 275,1599.27L275,1623.73C275,1650.92 286.426,1673 300.5,1673C314.574,1673 326,1650.92 326,1623.73L326,1599.27Z" style="fill:url(#_Linear28);"/>
                    </g>
                </g>
            </g>
        </g>
    </g>
    <defs>
        <linearGradient id="_Linear1" x1="0" y1="0" x2="1" y2="0" gradientUnits="userSpaceOnUse" gradientTransform="matrix(5.25076,-0.0191333,0.0191333,5.25076,0.0614543,-0.242022)"><stop offset="0" style="stop-color:rgb(255,123,28);stop-opacity:1"/><stop offset="1" style="stop-color:rgb(255,210,23);stop-opacity:1"/></linearGradient>
        <linearGradient id="_Linear2" x1="0" y1="0" x2="1" y2="0" gradientUnits="userSpaceOnUse" gradientTransform="matrix(5.25076,-0.0191333,0.0191333,5.25076,-0.597365,-0.242022)"><stop offset="0" style="stop-color:rgb(255,123,28);stop-opacity:1"/><stop offset="1" style="stop-color:rgb(255,210,23);stop-opacity:1"/></linearGradient>
        <linearGradient id="_Linear3" x1="0" y1="0" x2="1" y2="0" gradientUnits="userSpaceOnUse" gradientTransform="matrix(913.595,-3.32907,3.32907,913.595,204.878,546.999)"><stop offset="0" style="stop-color:rgb(255,123,28);stop-opacity:1"/><stop offset="1" style="stop-color:rgb(255,210,23);stop-opacity:1"/></linearGradient>
        <linearGradient id="_Linear4" x1="0" y1="0" x2="1" y2="0" gradientUnits="userSpaceOnUse" gradientTransform="matrix(913.595,-3.32907,3.32907,913.595,6.62541,546.999)"><stop offset="0" style="stop-color:rgb(255,123,28);stop-opacity:1"/><stop offset="1" style="stop-color:rgb(255,210,23);stop-opacity:1"/></linearGradient>
        <linearGradient id="_Linear5" x1="0" y1="0" x2="1" y2="0" gradientUnits="userSpaceOnUse" gradientTransform="matrix(5.25076,-0.0191333,0.0191333,5.25076,-1.24197,-0.242022)"><stop offset="0" style="stop-color:rgb(255,123,28);stop-opacity:1"/><stop offset="1" style="stop-color:rgb(255,210,23);stop-opacity:1"/></linearGradient>
        <linearGradient id="_Linear6" x1="0" y1="0" x2="1" y2="0" gradientUnits="userSpaceOnUse" gradientTransform="matrix(5.25076,-0.0191333,0.0191333,5.25076,-1.4739,-0.242022)"><stop offset="0" style="stop-color:rgb(255,123,28);stop-opacity:1"/><stop offset="1" style="stop-color:rgb(255,210,23);stop-opacity:1"/></linearGradient>
        <linearGradient id="_Linear7" x1="0" y1="0" x2="1" y2="0" gradientUnits="userSpaceOnUse" gradientTransform="matrix(5.25076,-0.0191333,0.0191333,5.25076,-1.74158,-0.242022)"><stop offset="0" style="stop-color:rgb(255,123,28);stop-opacity:1"/><stop offset="1" style="stop-color:rgb(255,210,23);stop-opacity:1"/></linearGradient>
        <linearGradient id="_Linear8" x1="0" y1="0" x2="1" y2="0" gradientUnits="userSpaceOnUse" gradientTransform="matrix(5.25076,-0.0191333,0.0191333,5.25076,-2.20464,-0.242022)"><stop offset="0" style="stop-color:rgb(255,123,28);stop-opacity:1"/><stop offset="1" style="stop-color:rgb(255,210,23);stop-opacity:1"/></linearGradient>
        <linearGradient id="_Linear9" x1="0" y1="0" x2="1" y2="0" gradientUnits="userSpaceOnUse" gradientTransform="matrix(5.25076,-0.0191333,0.0191333,5.25076,-2.61475,-0.242022)"><stop offset="0" style="stop-color:rgb(255,123,28);stop-opacity:1"/><stop offset="1" style="stop-color:rgb(255,210,23);stop-opacity:1"/></linearGradient>
        <linearGradient id="_Linear10" x1="0" y1="0" x2="1" y2="0" gradientUnits="userSpaceOnUse" gradientTransform="matrix(5.25076,-0.0191333,0.0191333,5.25076,-2.88244,-0.242022)"><stop offset="0" style="stop-color:rgb(255,123,28);stop-opacity:1"/><stop offset="1" style="stop-color:rgb(255,210,23);stop-opacity:1"/></linearGradient>
        <linearGradient id="_Linear11" x1="0" y1="0" x2="1" y2="0" gradientUnits="userSpaceOnUse" gradientTransform="matrix(5.25076,-0.0191333,0.0191333,5.25076,-3.3482,-0.242022)"><stop offset="0" style="stop-color:rgb(255,123,28);stop-opacity:1"/><stop offset="1" style="stop-color:rgb(255,210,23);stop-opacity:1"/></linearGradient>
        <linearGradient id="_Linear12" x1="0" y1="0" x2="1" y2="0" gradientUnits="userSpaceOnUse" gradientTransform="matrix(826.289,-2.28678,3.01093,627.562,-378.289,1616.31)"><stop offset="0" style="stop-color:rgb(255,123,28);stop-opacity:1"/><stop offset="1" style="stop-color:rgb(255,210,23);stop-opacity:1"/></linearGradient>
        <linearGradient id="_Linear13" x1="0" y1="0" x2="1" y2="0" gradientUnits="userSpaceOnUse" gradientTransform="matrix(826.289,-2.94412,3.01093,807.954,-439.289,1617.69)"><stop offset="0" style="stop-color:rgb(255,123,28);stop-opacity:1"/><stop offset="1" style="stop-color:rgb(255,210,23);stop-opacity:1"/></linearGradient>
        <linearGradient id="_Linear14" x1="0" y1="0" x2="1" y2="0" gradientUnits="userSpaceOnUse" gradientTransform="matrix(826.289,-5.81758,3.01093,1596.52,-500.289,1623.73)"><stop offset="0" style="stop-color:rgb(255,123,28);stop-opacity:1"/><stop offset="1" style="stop-color:rgb(255,210,23);stop-opacity:1"/></linearGradient>
        <linearGradient id="_Linear15" x1="0" y1="0" x2="1" y2="0" gradientUnits="userSpaceOnUse" gradientTransform="matrix(5.96033,-0.710191,0.710191,5.96033,-0.664542,0.316601)"><stop offset="0" style="stop-color:rgb(255,151,193);stop-opacity:1"/><stop offset="1" style="stop-color:rgb(255,210,23);stop-opacity:1"/></linearGradient>
        <linearGradient id="_Linear16" x1="0" y1="0" x2="1" y2="0" gradientUnits="userSpaceOnUse" gradientTransform="matrix(5.96033,-0.710191,0.710191,5.96033,-1.32336,0.316601)"><stop offset="0" style="stop-color:rgb(255,151,193);stop-opacity:1"/><stop offset="1" style="stop-color:rgb(255,210,23);stop-opacity:1"/></linearGradient>
        <linearGradient id="_Linear17" x1="0" y1="0" x2="1" y2="0" gradientUnits="userSpaceOnUse" gradientTransform="matrix(1037.06,-123.568,123.568,1037.06,78.5595,644.195)"><stop offset="0" style="stop-color:rgb(255,151,193);stop-opacity:1"/><stop offset="1" style="stop-color:rgb(255,210,23);stop-opacity:1"/></linearGradient>
        <linearGradient id="_Linear18" x1="0" y1="0" x2="1" y2="0" gradientUnits="userSpaceOnUse" gradientTransform="matrix(1037.06,-123.568,123.568,1037.06,-119.693,644.195)"><stop offset="0" style="stop-color:rgb(255,151,193);stop-opacity:1"/><stop offset="1" style="stop-color:rgb(255,210,23);stop-opacity:1"/></linearGradient>
        <linearGradient id="_Linear19" x1="0" y1="0" x2="1" y2="0" gradientUnits="userSpaceOnUse" gradientTransform="matrix(5.96033,-0.710191,0.710191,5.96033,-1.96797,0.316601)"><stop offset="0" style="stop-color:rgb(255,151,193);stop-opacity:1"/><stop offset="1" style="stop-color:rgb(255,210,23);stop-opacity:1"/></linearGradient>
        <linearGradient id="_Linear20" x1="0" y1="0" x2="1" y2="0" gradientUnits="userSpaceOnUse" gradientTransform="matrix(5.96033,-0.710191,0.710191,5.96033,-2.1999,0.316601)"><stop offset="0" style="stop-color:rgb(255,151,193);stop-opacity:1"/><stop offset="1" style="stop-color:rgb(255,210,23);stop-opacity:1"/></linearGradient>
        <linearGradient id="_Linear21" x1="0" y1="0" x2="1" y2="0" gradientUnits="userSpaceOnUse" gradientTransform="matrix(5.96033,-0.710191,0.710191,5.96033,-2.46758,0.316601)"><stop offset="0" style="stop-color:rgb(255,151,193);stop-opacity:1"/><stop offset="1" style="stop-color:rgb(255,210,23);stop-opacity:1"/></linearGradient>
        <linearGradient id="_Linear22" x1="0" y1="0" x2="1" y2="0" gradientUnits="userSpaceOnUse" gradientTransform="matrix(5.96033,-0.710191,0.710191,5.96033,-2.93064,0.316601)"><stop offset="0" style="stop-color:rgb(255,151,193);stop-opacity:1"/><stop offset="1" style="stop-color:rgb(255,210,23);stop-opacity:1"/></linearGradient>
        <linearGradient id="_Linear23" x1="0" y1="0" x2="1" y2="0" gradientUnits="userSpaceOnUse" gradientTransform="matrix(5.96033,-0.710191,0.710191,5.96033,-3.34075,0.316601)"><stop offset="0" style="stop-color:rgb(255,151,193);stop-opacity:1"/><stop offset="1" style="stop-color:rgb(255,210,23);stop-opacity:1"/></linearGradient>
        <linearGradient id="_Linear24" x1="0" y1="0" x2="1" y2="0" gradientUnits="userSpaceOnUse" gradientTransform="matrix(5.96033,-0.710191,0.710191,5.96033,-3.60843,0.316601)"><stop offset="0" style="stop-color:rgb(255,151,193);stop-opacity:1"/><stop offset="1" style="stop-color:rgb(255,210,23);stop-opacity:1"/></linearGradient>
        <linearGradient id="_Linear25" x1="0" y1="0" x2="1" y2="0" gradientUnits="userSpaceOnUse" gradientTransform="matrix(5.96033,-0.710191,0.710191,5.96033,-4.07419,0.316601)"><stop offset="0" style="stop-color:rgb(255,151,193);stop-opacity:1"/><stop offset="1" style="stop-color:rgb(255,210,23);stop-opacity:1"/></linearGradient>
        <linearGradient id="_Linear26" x1="0" y1="0" x2="1" y2="0" gradientUnits="userSpaceOnUse" gradientTransform="matrix(937.951,-84.8808,111.76,712.369,-492.536,1683.07)"><stop offset="0" style="stop-color:rgb(255,151,193);stop-opacity:1"/><stop offset="1" style="stop-color:rgb(255,210,23);stop-opacity:1"/></linearGradient>
        <linearGradient id="_Linear27" x1="0" y1="0" x2="1" y2="0" gradientUnits="userSpaceOnUse" gradientTransform="matrix(937.951,-109.28,111.76,917.138,-553.536,1703.65)"><stop offset="0" style="stop-color:rgb(255,151,193);stop-opacity:1"/><stop offset="1" style="stop-color:rgb(255,210,23);stop-opacity:1"/></linearGradient>
        <linearGradient id="_Linear28" x1="0" y1="0" x2="1" y2="0" gradientUnits="userSpaceOnUse" gradientTransform="matrix(937.951,-215.937,111.76,1812.27,-614.536,1793.58)"><stop offset="0" style="stop-color:rgb(255,151,193);stop-opacity:1"/><stop offset="1" style="stop-color:rgb(255,210,23);stop-opacity:1"/></linearGradient>
    </defs>
</svg>
