<?xml version="1.0" encoding="UTF-8" standalone="no"?>
<!DOCTYPE svg PUBLIC "-//W3C//DTD SVG 1.1//EN" "http://www.w3.org/Graphics/SVG/1.1/DTD/svg11.dtd">
<svg width="100%" height="100%" viewBox="0 0 1080 1080" version="1.1" xmlns="http://www.w3.org/2000/svg" xmlns:xlink="http://www.w3.org/1999/xlink" xml:space="preserve" xmlns:serif="http://www.serif.com/" style="fill-rule:evenodd;clip-rule:evenodd;stroke-linejoin:round;stroke-miterlimit:2;">
    <rect id="Artboard1" x="0" y="0" width="1080" height="1080" style="fill:none;"/>
    <g id="Artboard11" serif:id="Artboard1">
        <g transform="matrix(4.87144,0,0,4.87144,-1078.9,-1626.02)">
            <g transform="matrix(50,0,0,50,230,458.75)">
                <path d="M0.366,0.018C0.544,0.018 0.671,-0.099 0.671,-0.271L0.671,-0.54L0.474,-0.54L0.474,-0.274C0.474,-0.206 0.43,-0.162 0.366,-0.162C0.301,-0.162 0.257,-0.206 0.257,-0.274L0.257,-0.54L0.06,-0.54L0.06,-0.271C0.06,-0.099 0.187,0.018 0.366,0.018Z" style="fill:white;fill-rule:nonzero;"/>
            </g>
            <g transform="matrix(50,0,0,50,262.941,458.75)">
                <path d="M0.374,-0.558C0.31,-0.558 0.253,-0.536 0.208,-0.497L0.185,-0.54L0.059,-0.54L0.059,0.195L0.242,0.195L0.242,-0.018C0.281,0.005 0.325,0.018 0.374,0.018C0.539,0.018 0.657,-0.102 0.657,-0.27C0.657,-0.438 0.539,-0.558 0.374,-0.558ZM0.349,-0.146C0.279,-0.146 0.228,-0.199 0.228,-0.27C0.228,-0.341 0.279,-0.394 0.349,-0.394C0.419,-0.394 0.47,-0.341 0.47,-0.27C0.47,-0.199 0.418,-0.146 0.349,-0.146Z" style="fill:white;fill-rule:nonzero;"/>
            </g>
            <g transform="matrix(0.287368,0,0,0.287368,174.197,289.459)">
                <circle cx="487.689" cy="471.863" r="15.933" style="fill:white;"/>
            </g>
            <g transform="matrix(0.287368,0,0,0.287368,231.169,289.459)">
                <circle cx="487.689" cy="471.863" r="15.933" style="fill:white;"/>
            </g>
            <g transform="matrix(50,0,0,50,295.171,458.75)">
                <rect x="0.059" y="-0.735" width="0.186" height="0.735" style="fill:white;fill-rule:nonzero;"/>
            </g>
            <g transform="matrix(50,0,0,50,306.768,458.75)">
                <rect x="0.059" y="-0.54" width="0.186" height="0.54" style="fill:white;fill-rule:nonzero;"/>
            </g>
            <g transform="matrix(50,0,0,50,320.152,458.75)">
                <path d="M0.42,-0.531L0.292,-0.531L0.292,-0.568C0.292,-0.595 0.309,-0.612 0.336,-0.612L0.419,-0.612L0.419,-0.754L0.289,-0.754C0.174,-0.754 0.115,-0.691 0.115,-0.583L0.115,-0.531L0.023,-0.531L0.023,-0.385L0.112,-0.385L0.112,-0L0.298,-0L0.298,-0.385L0.42,-0.385L0.42,-0.531Z" style="fill:white;fill-rule:nonzero;"/>
            </g>
            <g transform="matrix(50,0,0,50,343.305,458.75)">
                <path d="M0.351,-0.163C0.312,-0.163 0.289,-0.186 0.289,-0.225L0.289,-0.397L0.42,-0.397L0.42,-0.54L0.284,-0.54L0.284,-0.698L0.246,-0.698L0.004,-0.44L0.004,-0.397L0.103,-0.397L0.103,-0.193C0.103,-0.073 0.175,-0 0.295,-0L0.423,-0L0.423,-0.163L0.351,-0.163Z" style="fill:white;fill-rule:nonzero;"/>
            </g>
            <g transform="matrix(50,0,0,50,363.81,458.75)">
                <rect x="0.059" y="-0.54" width="0.186" height="0.54" style="fill:white;fill-rule:nonzero;"/>
            </g>
            <g transform="matrix(50,0,0,50,377.195,458.75)">
                <path d="M0.42,-0.531L0.292,-0.531L0.292,-0.568C0.292,-0.595 0.309,-0.612 0.336,-0.612L0.419,-0.612L0.419,-0.754L0.289,-0.754C0.174,-0.754 0.115,-0.691 0.115,-0.583L0.115,-0.531L0.023,-0.531L0.023,-0.385L0.112,-0.385L0.112,-0L0.298,-0L0.298,-0.385L0.42,-0.385L0.42,-0.531Z" style="fill:white;fill-rule:nonzero;"/>
            </g>
            <g transform="matrix(50,0,0,50,400.483,458.75)">
                <path d="M0.423,-0.54L0.316,-0.243L0.202,-0.54L-0,-0.54L0.223,-0.045C0.198,0.023 0.176,0.041 0.105,0.041L0.054,0.041L0.054,0.201L0.118,0.201C0.257,0.201 0.324,0.141 0.397,-0.024L0.623,-0.54L0.423,-0.54Z" style="fill:white;fill-rule:nonzero;"/>
            </g>
        </g>
    </g>
</svg>
